# xmcd
#
# Track frame offsets: 
#        150
#        15918
#        32003
#        51385
#        70005
#        88773
#        104028
#        116958
#        133673
#        147540
#        162053
#
# Disc length: 2375 seconds
#
# Revision: 6
# Processed by: cddbd v1.5.2PL0 Copyright (c) Steve Scherf et al.
# Submitted via: ExactAudioCopy v0.95b4
#
DISCID=9b09450b
DTITLE=Brooks and Dunn - Borderline
DYEAR=1996
DGENRE=Country
TTITLE0=My Maria
TTITLE1=A Man This Lonely
TTITLE2=Why Would I Say Goodbye
TTITLE3=Mama Don't Get Dressed Up for Nothing
TTITLE4=I Am That Man
TTITLE5=More Than a Margarita
TTITLE6=Redneck Rhythm and Blues
TTITLE7=My Love Will Follow You
TTITLE8=One Heartache at a Time
TTITLE9=Tequila Town
TTITLE10=White Line Casanova
EXTD=LABEL =Arista Records, Inc.\nID =07822-18810-2\nUPC =07822-188
EXTD=10-29\nCOPYRIGHT =1996\n*****\nSubtitle ="Brooks and Dunn 4"
EXTT0=
EXTT1=
EXTT2=
EXTT3=
EXTT4=
EXTT5=
EXTT6=
EXTT7=
EXTT8=
EXTT9=
EXTT10=
PLAYORDER=
